# xmcd CD database file
#
# Track frame offsets:
#	150
#	13162
#	26994
#	40617
#	54257
#	68033
#	82102
#	95461
#	110523
#	124131
#	138599
#	151844
#	165968
#	178146
#	192511
#	205997
#	219655
#	233385
#	246718
#	260462
#	274395
#	287559
#	299696
#	311877
#
# Disc length: 4339 seconds
#
# Revision: 0
# Processed by: cddbd v1.5.1PL0 Copyright (c) Steve Scherf et al.
# Submitted via: CDex 1.51
#
DISCID=7010f118
DTITLE=Thelonious Monk - Thelonious Monk - Complete 1947 - 1952 (24 bit Edition)
DYEAR=2001
DGENRE=Jazz
TTITLE0=Humph
TTITLE1=Evonce
TTITLE2=Suburban Eyes
TTITLE3=Thelonious
TTITLE4=Nice Work If You Can Get It
TTITLE5=Ruby My Dear
TTITLE6=Well You Needn´t
TTITLE7=April In Paris
TTITLE8=Off Minor
TTITLE9=Introspection
TTITLE10=In Walked Bud
TTITLE11=Monk´s Mood
TTITLE12=Who Knows
TTITLE13=´Round Midnight
TTITLE14=All The Things You Are
TTITLE15=I Should Care
TTITLE16=Evonce*
TTITLE17=Suburban Eyes*
TTITLE18=Nice Work If You Can Get It*
TTITLE19=Ruby My Dear*
TTITLE20=Well You Needn´t*
TTITLE21=April In Paris*
TTITLE22=Who Knows*
TTITLE23=I Should Care*
EXTD=YEAR: 2001
EXTT0=
EXTT1=
EXTT2=
EXTT3=
EXTT4=
EXTT5=
EXTT6=
EXTT7=
EXTT8=
EXTT9=
EXTT10=
EXTT11=
EXTT12=
EXTT13=
EXTT14=
EXTT15=
EXTT16=
EXTT17=
EXTT18=
EXTT19=
EXTT20=
EXTT21=
EXTT22=
EXTT23=
PLAYORDER=
